STARTFONT 2.1
FONT HAN-GB2312
SIZE 14 72 72
FONTBOUNDINGBOX 8 14 0 0
STARTPROPERTIES 1
BITCOUNT 8
ENDPROPERTIES
CHARS 32
STARTCHAR  00A8
ENCODING  168
SWIDTH  1000 0
DWIDTH  4 0
BBX  5 2 0 8
BITMAP
FFE000FFE0
FFE000FFE0
ENDCHAR
STARTCHAR  00B1
ENCODING  177
SWIDTH  1000 0
DWIDTH  8 0
BBX  7 7 0 0
BITMAP
000000C0000000
000000FF000000
C0FFFFFFFFFFC0
000000FF000000
000000FF000000
00000010000000
C0FFFFFFFFFFC0
ENDCHAR
STARTCHAR  00B7
ENCODING  183
SWIDTH  1000 0
DWIDTH  4 0
BBX  2 3 1 3
BITMAP
3020
FFE0
FFE0
ENDCHAR
STARTCHAR  00E0
ENCODING  224
SWIDTH  1000 0
DWIDTH  8 0
BBX  8 11 0 0
BITMAP
0000606020000000
000060FFA0000000
00000080FF300000
0000000030100000
60FFFFFFFFFFC020
40A0A0A0A0E0FFA0
001030303030FFE0
60FFFFFFFFFFFFE0
E0FF30000000FFE0
C0FFC0A0A0A0FFE0
30E0FFFFFFFFFFE0
ENDCHAR
STARTCHAR  00E1
ENCODING  225
SWIDTH  1000 0
DWIDTH  8 0
BBX  8 11 0 0
BITMAP
0000000060602000
00000060FFC00000
000000E0E0100000
0000003020000000
60FFFFFFFFFFC020
40A0A0A0A0E0FFA0
001030303030FFE0
60FFFFFFFFFFFFE0
E0FF30000000FFE0
C0FFC0A0A0A0FFE0
30E0FFFFFFFFFFE0
ENDCHAR
STARTCHAR  00E8
ENCODING  232
SWIDTH  1000 0
DWIDTH  7 0
BBX  7 11 0 0
BITMAP
00406010000000
0030FF80000000
000080E0000000
00000030000000
0060E0FFFFFF40
60FFC0A0A0A020
C0FFE0E0E0E030
E0FFFFFFFFFF40
A0FF1000000000
40FFC060606010
0060F0FFFFFF40
ENDCHAR
STARTCHAR  00E9
ENCODING  233
SWIDTH  1000 0
DWIDTH  7 0
BBX  7 11 0 0
BITMAP
00001060600000
000060FF800000
0000C0C0000000
00003010000000
0060E0FFFFFF40
60FFC0A0A0A020
C0FFE0E0E0E030
E0FFFFFFFFFF40
A0FF1000000000
40FFC060606010
0060F0FFFFFF40
ENDCHAR
STARTCHAR  00EA
ENCODING  234
SWIDTH  1000 0
DWIDTH  7 0
BBX  7 11 0 0
BITMAP
00106060000000
0080E0E0800000
10F06060FF3000
10300000302000
0060E0FFFFFF40
60FFC0A0A0A020
C0FFE0E0E0E030
E0FFFFFFFFFF40
A0FF1000000000
40FFC060606010
0060F0FFFFFF40
ENDCHAR
STARTCHAR  00EC
ENCODING  236
SWIDTH  1000 0
DWIDTH  3 0
BBX  4 11 -1 0
BITMAP
40602000
30FF8000
0080F000
00003000
00E0FF00
00E0FF00
00E0FF00
00E0FF00
00E0FF00
00E0FF00
00E0FF00
ENDCHAR
STARTCHAR  00ED
ENCODING  237
SWIDTH  1000 0
DWIDTH  3 0
BBX  4 11 0 0
BITMAP
00606000
40FF8000
A0E00000
30100000
E0FF0000
E0FF0000
E0FF0000
E0FF0000
E0FF0000
E0FF0000
E0FF0000
ENDCHAR
STARTCHAR  00F2
ENCODING  242
SWIDTH  1000 0
DWIDTH  9 0
BBX  9 11 0 0
BITMAP
000040604000000000
000030F0FF20000000
00000040FFA0000000
000000003040000000
0030A0F0FFF0A03000
40FFFFC0A0C0FFF030
C0FF6000000060FFA0
E0FF0000000010FFE0
C0FF6000000060FFC0
40FFFFC0A0C0FFFF40
0040C0F0FFF0C04000
ENDCHAR
STARTCHAR  00F3
ENCODING  243
SWIDTH  1000 0
DWIDTH  9 0
BBX  9 11 0 0
BITMAP
000000003060600000
00000000E0FF600000
00000060FF80000000
000000404000000000
0030A0F0FFF0A03000
40FFFFC0A0C0FFF030
C0FF6000000060FFA0
E0FF0000000010FFE0
C0FF6000000060FFC0
40FFFFC0A0C0FFFF40
0040C0F0FFF0C04000
ENDCHAR
STARTCHAR  00F7
ENCODING  247
SWIDTH  1000 0
DWIDTH  8 0
BBX  8 5 0 1
BITMAP
000000E0A0000000
000000A080000000
60FFFFFFFFFFFF40
000000A080000000
000000E0A0000000
ENDCHAR
STARTCHAR  00F9
ENCODING  249
SWIDTH  1000 0
DWIDTH  8 0
BBX  7 11 0 0
BITMAP
00206040000000
0000C0FF200000
000020E0A00000
00000010200000
E0FF000000E0FF
E0FF000000E0FF
E0FF000000E0FF
E0FF000000E0FF
E0FF000000E0FF
C0FFC0A0A0F0FF
30E0FFFFFFFFFF
ENDCHAR
STARTCHAR  00FA
ENCODING  250
SWIDTH  1000 0
DWIDTH  8 0
BBX  7 11 0 0
BITMAP
00000030604000
000000E0F03000
000040FF600000
00002030000000
E0FF000000E0FF
E0FF000000E0FF
E0FF000000E0FF
E0FF000000E0FF
E0FF000000E0FF
C0FFC0A0A0F0FF
30E0FFFFFFFFFF
ENDCHAR
STARTCHAR  00FC
ENCODING  252
SWIDTH  1000 0
DWIDTH  8 0
BBX  8 10 0 0
BITMAP
00E0FF0000FFE000
00E0FF0000FFE000
4060200000206040
E0FF40000060FFE0
E0FF40000060FFE0
E0FF40000060FFE0
E0FF40000060FFE0
E0FF60000060FFE0
A0FFE0A0A0C0FFE0
20C0F0FFFFFFFFE0
ENDCHAR
STARTCHAR  02C7
ENCODING  711
SWIDTH  1000 0
DWIDTH  5 0
BBX  6 3 0 8
BITMAP
404000306010
60FF30E0A000
00A0E0E01000
ENDCHAR
STARTCHAR  0394
ENCODING  916
SWIDTH  1000 0
DWIDTH  9 0
BBX  9 10 0 0
BITMAP
000000004000000000
00000060C000000000
000000C0FF30000000
000020A0E0A0000000
0000803080F0100000
0000A00020FF600000
0060600000C0C00000
00A010000060FF3000
20A000000000F08000
80E0C0C0C0C0F0F010
ENDCHAR
STARTCHAR  03A9
ENCODING  937
SWIDTH  1000 0
DWIDTH  11 0
BBX  9 10 1 0
BITMAP
0020A0F0FFF0A02000
20F0E0300030E0F020
A0FF3000000030FFA0
F0E00000000000F0F0
FFE00000000000E0FF
E0FF1000000010FFE0
40FF80000000A0FF40
4040C0C000C0C04040
C06060FF00FF6060E0
FFFFFFFF00FFFFFFFF
ENDCHAR
STARTCHAR  03C0
ENCODING  960
SWIDTH  1000 0
DWIDTH  8 0
BBX  8 6 0 0
BITMAP
80E0FFFFFFFFF030
6000FF00E0FF0000
0010FF00E0FF0000
0030F000E0FF0010
60A0E000C0FF1040
C0F0400060F0A010
ENDCHAR
STARTCHAR  2014
ENCODING  8212
SWIDTH  1000 0
DWIDTH  12 0
BBX  12 3 0 3
BITMAP
A0FFFFFFFFFFFFFFFFFFFFA0
A0FFFFFFFFFFFFFFFFFFFFA0
203030303030303030303020
ENDCHAR
STARTCHAR  2018
ENCODING  8216
SWIDTH  1000 0
DWIDTH  3 0
BBX  3 4 0 6
BITMAP
40E000
E0FFE0
E0FFE0
203020
ENDCHAR
STARTCHAR  2019
ENCODING  8217
SWIDTH  1000 0
DWIDTH  3 0
BBX  3 4 0 6
BITMAP
A0FFFF
A0FFFF
30E0E0
008010
ENDCHAR
STARTCHAR  220F
ENCODING  8719
SWIDTH  1000 0
DWIDTH  12 0
BBX  12 14 0 -3
BITMAP
30FFFFFFFFFFFFFFFFFFFF30
0000FFE000000000E0FF0000
0000FFE000000000E0FF0000
0000FFE000000000E0FF0000
0000FFE000000000E0FF0000
0000FFE000000000E0FF0000
0000FFE000000000E0FF0000
0000FFE000000000E0FF0000
0000FFE000000000E0FF0000
0000FFE000000000E0FF0000
0000FFE000000000E0FF0000
0000FFE000000000E0FF0000
0000FFE000000000E0FF0000
30FFFFFFC00000C0FFFFFF30
ENDCHAR
STARTCHAR  2211
ENCODING  8721
SWIDTH  1000 0
DWIDTH  10 0
BBX  10 14 0 -3
BITMAP
10F0FFFFFFFFFFF04000
0060FF30001060F08000
0000A0E000000060A000
000010F0800000006000
00000060FF4000000000
00000000A0E010000000
0000000010F0A0000000
000000000060E0000000
0000000010C020000000
00000000A03000000000
00000080600000003000
0000608000000010C000
0040C030303040C0A000
20F0FFFFFFFFFFF04000
ENDCHAR
STARTCHAR  221A
ENCODING  8730
SWIDTH  1000 0
DWIDTH  8 0
BBX  10 11 -1 0
BITMAP
0000000000000060FF30
00000000000000C03000
00000000000020C00000
00000000000080600000
000030000000C0100000
10A0F0100040A0000000
0000E06000A030000000
000060E010C000000000
000010F0806000000000
000000A0F01000000000
00000040A00000000000
ENDCHAR
STARTCHAR  221E
ENCODING  8734
SWIDTH  1000 0
DWIDTH  10 0
BBX  9 5 1 2
BITMAP
40F0E04030E0F08000
A01020A0E080106020
60000060C000001040
801040F0A030008030
30E0F06010C0FF8000
ENDCHAR
STARTCHAR  222B
ENCODING  8747
SWIDTH  1000 0
DWIDTH  4 0
BBX  8 14 -2 -3
BITMAP
0000000020C0E020
00000010E060E040
00000060FF200000
000000A0FF100000
000000E0FF000000
000000E0FF000000
000000E0FF000000
000000E0FF000000
000000E0FF000000
000000E0F0000000
000000E0E0000000
000000FFA0000000
20E040FF30000000
10E0E06000000000
ENDCHAR
STARTCHAR  2248
ENCODING  8776
SWIDTH  1000 0
DWIDTH  8 0
BBX  8 4 0 1
BITMAP
1080A08030106040
C0806080E0FFA020
60E0FFE08060A060
8030004080A06000
ENDCHAR
STARTCHAR  2260
ENCODING  8800
SWIDTH  1000 0
DWIDTH  8 0
BBX  7 7 0 0
BITMAP
00000000003040
0000000020E040
60FFFFFFFFFFF0
000010C0600000
60FFFFFFFFFFF0
00A0A000000000
00600000000000
ENDCHAR
STARTCHAR  2264
ENCODING  8804
SWIDTH  1000 0
DWIDTH  8 0
BBX  7 7 0 0
BITMAP
00000000000010
0000002060C0E0
2080C0E0804000
60FFE060100000
001060A0F0A060
000000001040A0
60FFFFFFFFFFF0
ENDCHAR
STARTCHAR  2265
ENCODING  8805
SWIDTH  1000 0
DWIDTH  8 0
BBX  7 7 0 0
BITMAP
10000000000000
60E0A040000000
001060C0E0A040
0000002080FFE0
2080E0E0803000
40803000000000
60FFFFFFFFFFF0
ENDCHAR
ENDFONT
